HIERARCHY
ROOT Bip01
{
  OFFSET 15.7446 31.5610 57.6474
  CHANNELS 6 Xposition Yposition Zposition Zrotation Xrotation Yrotation
  JOINT Bip01_Footsteps
  {
    OFFSET 53.2821 -0.0001 8.1953
    CHANNELS 6 Xposition Yposition Zposition Zrotation Xrotation Yrotation
    End Site
    {
      OFFSET 0 0 0
    }
  }
  JOINT b_Hips
  {
    OFFSET 0.0000 0.0000 0.0000
    CHANNELS 6 Xposition Yposition Zposition Zrotation Xrotation Yrotation
    JOINT b_Spine
    {
      OFFSET 10.4409 -1.6220 0.0000
      CHANNELS 6 Xposition Yposition Zposition Zrotation Xrotation Yrotation
      JOINT b_Spine1
      {
        OFFSET 8.8514 -0.0090 0.0000
        CHANNELS 6 Xposition Yposition Zposition Zrotation Xrotation Yrotation
        JOINT b_Spine2
        {
          OFFSET 11.3035 -0.0088 -0.0000
          CHANNELS 6 Xposition Yposition Zposition Zrotation Xrotation Yrotation
          JOINT b_Spine3
          {
            OFFSET 11.0297 -0.0113 0.0000
            CHANNELS 6 Xposition Yposition Zposition Zrotation Xrotation Yrotation
            JOINT b__Neck
            {
              OFFSET 14.9480 -3.1935 0.0000
              CHANNELS 6 Xposition Yposition Zposition Zrotation Xrotation Yrotation
              JOINT b__Neck1
              {
                OFFSET 5.4958 -0.0043 0.0000
                CHANNELS 6 Xposition Yposition Zposition Zrotation Xrotation Yrotation
                JOINT b__Neck2
                {
                  OFFSET 5.5266 -0.0049 0.0000
                  CHANNELS 6 Xposition Yposition Zposition Zrotation Xrotation Yrotation
                  JOINT b_Head
                  {
                    OFFSET 6.1093 0.0000 0.0000
                    CHANNELS 6 Xposition Yposition Zposition Zrotation Xrotation Yrotation
                    JOINT Bip01_HeadNub
                    {
                      OFFSET 28.6688 0.0000 -0.0000
                      CHANNELS 6 Xposition Yposition Zposition Zrotation Xrotation Yrotation
                      End Site
                      {
                        OFFSET 0 0 0
                      }
                    }
                    JOINT Dog_Jaw
                    {
                      OFFSET 0.6075 2.3575 -0.0000
                      CHANNELS 6 Xposition Yposition Zposition Zrotation Xrotation Yrotation
                      End Site
                      {
                        OFFSET 0 0 0
                      }
                    }
                  }
                }
              }
            }
            JOINT b_LeftClav
            {
              OFFSET 10.4683 2.1257 3.5190
              CHANNELS 6 Xposition Yposition Zposition Zrotation Xrotation Yrotation
              JOINT b_LeftArm
              {
                OFFSET 7.3453 0.0000 0.0000
                CHANNELS 6 Xposition Yposition Zposition Zrotation Xrotation Yrotation
                JOINT b_LeftForeArm
                {
                  OFFSET 23.3863 -0.0000 0.0000
                  CHANNELS 6 Xposition Yposition Zposition Zrotation Xrotation Yrotation
                  JOINT b_LeftHand
                  {
                    OFFSET 21.5040 0.0000 0.0000
                    CHANNELS 6 Xposition Yposition Zposition Zrotation Xrotation Yrotation
                    JOINT b__LeftFinger
                    {
                      OFFSET 1.5926 6.2126 -0.0138
                      CHANNELS 6 Xposition Yposition Zposition Zrotation Xrotation Yrotation
                      JOINT Bip01_L_Finger0Nub
                      {
                        OFFSET 23.3657 0.0000 0.0000
                        CHANNELS 6 Xposition Yposition Zposition Zrotation Xrotation Yrotation
                        End Site
                        {
                          OFFSET 0 0 0
                        }
                      }
                    }
                  }
                }
                JOINT Dog_LeftArmor002
                {
                  OFFSET 4.2035 4.4457 12.7354
                  CHANNELS 6 Xposition Yposition Zposition Zrotation Xrotation Yrotation
                  End Site
                  {
                    OFFSET 0 0 0
                  }
                }
              }
            }
            JOINT b_RightClav
            {
              OFFSET 10.4683 2.1257 -3.5189
              CHANNELS 6 Xposition Yposition Zposition Zrotation Xrotation Yrotation
              JOINT b_RightArm
              {
                OFFSET 7.3453 -0.0000 -0.0000
                CHANNELS 6 Xposition Yposition Zposition Zrotation Xrotation Yrotation
                JOINT b_RightForeArm
                {
                  OFFSET 23.3863 0.0000 0.0000
                  CHANNELS 6 Xposition Yposition Zposition Zrotation Xrotation Yrotation
                  JOINT b_RightHand
                  {
                    OFFSET 21.5040 0.0000 0.0000
                    CHANNELS 6 Xposition Yposition Zposition Zrotation Xrotation Yrotation
                    JOINT b_RightFinger
                    {
                      OFFSET 1.5926 6.2126 0.0138
                      CHANNELS 6 Xposition Yposition Zposition Zrotation Xrotation Yrotation
                      JOINT Bip01_R_Finger0Nub
                      {
                        OFFSET 23.3657 0.0000 0.0000
                        CHANNELS 6 Xposition Yposition Zposition Zrotation Xrotation Yrotation
                        End Site
                        {
                          OFFSET 0 0 0
                        }
                      }
                    }
                  }
                }
                JOINT Dog_RightArmor002
                {
                  OFFSET 4.2034 4.4457 -12.7351
                  CHANNELS 6 Xposition Yposition Zposition Zrotation Xrotation Yrotation
                  End Site
                  {
                    OFFSET 0 0 0
                  }
                }
              }
            }
          }
        }
      }
    }
    JOINT b_Tail001
    {
      OFFSET -4.7889 3.8598 0.8608
      CHANNELS 6 Xposition Yposition Zposition Zrotation Xrotation Yrotation
      JOINT b_Tail002
      {
        OFFSET 4.2212 0.0000 -0.0000
        CHANNELS 6 Xposition Yposition Zposition Zrotation Xrotation Yrotation
        JOINT b_Tail003
        {
          OFFSET 4.9750 0.0000 -0.0000
          CHANNELS 6 Xposition Yposition Zposition Zrotation Xrotation Yrotation
          JOINT b_Tail004
          {
            OFFSET 4.7171 -0.0000 0.0000
            CHANNELS 6 Xposition Yposition Zposition Zrotation Xrotation Yrotation
            JOINT b_Tail005
            {
              OFFSET 9.7173 -0.0000 -0.0001
              CHANNELS 6 Xposition Yposition Zposition Zrotation Xrotation Yrotation
              JOINT b_Tail006
              {
                OFFSET 8.2617 0.0001 0.0000
                CHANNELS 6 Xposition Yposition Zposition Zrotation Xrotation Yrotation
                JOINT b_Tail007
                {
                  OFFSET 9.7599 -0.0001 0.0000
                  CHANNELS 6 Xposition Yposition Zposition Zrotation Xrotation Yrotation
                  JOINT b_Tail008
                  {
                    OFFSET 11.1530 0.0000 -0.0000
                    CHANNELS 6 Xposition Yposition Zposition Zrotation Xrotation Yrotation
                    JOINT b_Tail009
                    {
                      OFFSET 10.3039 0.0000 0.0000
                      CHANNELS 6 Xposition Yposition Zposition Zrotation Xrotation Yrotation
                      End Site
                      {
                        OFFSET 0 0 0
                      }
                    }
                  }
                }
              }
            }
          }
        }
      }
    }
    JOINT Dog_LeftTail001
    {
      OFFSET -11.9878 -1.7857 10.1900
      CHANNELS 6 Xposition Yposition Zposition Zrotation Xrotation Yrotation
      JOINT Dog_LeftTail002
      {
        OFFSET 8.4424 0.0000 0.0000
        CHANNELS 6 Xposition Yposition Zposition Zrotation Xrotation Yrotation
        JOINT Dog_LeftTail003
        {
          OFFSET 9.9501 0.0000 -0.0000
          CHANNELS 6 Xposition Yposition Zposition Zrotation Xrotation Yrotation
          JOINT Dog_LeftTail004
          {
            OFFSET 9.4342 0.0000 -0.0000
            CHANNELS 6 Xposition Yposition Zposition Zrotation Xrotation Yrotation
            JOINT Dog_LeftTail005
            {
              OFFSET 9.7173 0.0001 0.0001
              CHANNELS 6 Xposition Yposition Zposition Zrotation Xrotation Yrotation
              JOINT Dog_LeftTail006
              {
                OFFSET 8.2618 -0.0000 -0.0000
                CHANNELS 6 Xposition Yposition Zposition Zrotation Xrotation Yrotation
                JOINT Dog_LeftTail007
                {
                  OFFSET 9.7599 0.0000 0.0000
                  CHANNELS 6 Xposition Yposition Zposition Zrotation Xrotation Yrotation
                  JOINT Dog_LeftTail008
                  {
                    OFFSET 11.1529 -0.0001 -0.0001
                    CHANNELS 6 Xposition Yposition Zposition Zrotation Xrotation Yrotation
                    JOINT Dog_LeftTail009
                    {
                      OFFSET 10.3039 -0.0000 0.0000
                      CHANNELS 6 Xposition Yposition Zposition Zrotation Xrotation Yrotation
                      End Site
                      {
                        OFFSET 0 0 0
                      }
                    }
                  }
                }
              }
            }
          }
        }
      }
    }
    JOINT b_LeftLegUpper
    {
      OFFSET -0.0000 0.0000 9.9422
      CHANNELS 6 Xposition Yposition Zposition Zrotation Xrotation Yrotation
      JOINT b_LeftLeg
      {
        OFFSET 25.9795 0.0000 0.0000
        CHANNELS 6 Xposition Yposition Zposition Zrotation Xrotation Yrotation
        JOINT b_LeftLeg1
        {
          OFFSET 21.2087 0.0000 -0.0000
          CHANNELS 6 Xposition Yposition Zposition Zrotation Xrotation Yrotation
          JOINT b_LeftAnkle
          {
            OFFSET 10.4341 -0.0000 0.0000
            CHANNELS 6 Xposition Yposition Zposition Zrotation Xrotation Yrotation
            JOINT b_LeftToe
            {
              OFFSET 5.6676 6.5983 -0.0000
              CHANNELS 6 Xposition Yposition Zposition Zrotation Xrotation Yrotation
              JOINT Bip01_L_Toe0Nub
              {
                OFFSET 8.6279 -0.0000 0.0000
                CHANNELS 6 Xposition Yposition Zposition Zrotation Xrotation Yrotation
                End Site
                {
                  OFFSET 0 0 0
                }
              }
            }
            JOINT b_LeftToe002
            {
              OFFSET 5.6741 -2.3619 -0.5306
              CHANNELS 6 Xposition Yposition Zposition Zrotation Xrotation Yrotation
              End Site
              {
                OFFSET 0 0 0
              }
            }
          }
        }
      }
      JOINT Dog_LeftArmor001
      {
        OFFSET -2.6287 -3.4254 -3.1462
        CHANNELS 6 Xposition Yposition Zposition Zrotation Xrotation Yrotation
        End Site
        {
          OFFSET 0 0 0
        }
      }
    }
    JOINT b_RightLegUpper
    {
      OFFSET 0.0000 -0.0000 -9.9422
      CHANNELS 6 Xposition Yposition Zposition Zrotation Xrotation Yrotation
      JOINT b_RightLeg
      {
        OFFSET 25.9795 0.0000 0.0000
        CHANNELS 6 Xposition Yposition Zposition Zrotation Xrotation Yrotation
        JOINT b_RightLeg1
        {
          OFFSET 21.2087 0.0000 0.0000
          CHANNELS 6 Xposition Yposition Zposition Zrotation Xrotation Yrotation
          JOINT b_RightAnkle
          {
            OFFSET 10.4341 -0.0000 -0.0000
            CHANNELS 6 Xposition Yposition Zposition Zrotation Xrotation Yrotation
            JOINT b_RightToe
            {
              OFFSET 5.6676 6.5983 -0.0000
              CHANNELS 6 Xposition Yposition Zposition Zrotation Xrotation Yrotation
              JOINT Bip01_R_Toe0Nub
              {
                OFFSET 8.6279 -0.0000 0.0000
                CHANNELS 6 Xposition Yposition Zposition Zrotation Xrotation Yrotation
                End Site
                {
                  OFFSET 0 0 0
                }
              }
            }
            JOINT b_RightToe002
            {
              OFFSET 5.6741 -2.3620 0.5304
              CHANNELS 6 Xposition Yposition Zposition Zrotation Xrotation Yrotation
              End Site
              {
                OFFSET 0 0 0
              }
            }
          }
        }
      }
      JOINT Dog_RightArmor001
      {
        OFFSET -2.6288 -3.4254 3.1460
        CHANNELS 6 Xposition Yposition Zposition Zrotation Xrotation Yrotation
        End Site
        {
          OFFSET 0 0 0
        }
      }
    }
  }
}
MOTION
Frames: 4
Frame Time: 0.00833333
-24.256 59.1103 661.218 91.5148 9.06025 -173.064 53.2821 -6.35e-05 8.19533 -90 -81.2558 -180 0 0 0 -89.9999 -4.1675e-14 -90 10.4409 -1.622 1.78e-05 -4.213 -1.22335 -5.2728 8.8514 -0.0089989 0 -5.88156 1.61266 2.77732 11.3035 -0.0087814 2.84217e-14 -7.02122 4.32726 1.9119 11.0297 -0.0113029 2.84217e-14 -3.38858 2.29149 -0.517622 14.948 -3.19349 8.6e-06 135.468 16.0311 -177.636 5.49578 -0.0042877 1.77636e-14 -4.97421 -6.51354 -8.19989 5.52657 -0.0048637 1.42109e-14 -2.10173 -2.29948 4.28004 6.10934 5.68434e-14 0 -47.5923 5.8469 -10.4309 28.6688 -1.42109e-14 -2.84217e-14 -7.95139e-16 -1.98785e-16 3.18055e-15 0.607494 2.35752 -7.6e-06 -156.427 -0.000147608 180 10.4683 2.1257 3.51896 -172.724 12.5175 -94.6253 7.34534 0 1.9e-06 75.335 -83.2935 163.901 23.3863 -1.9e-06 1e-06 3.17384 -0.682021 -1.20581 21.504 -1.13687e-13 0 -85.1108 -5.81613 1.05371 1.59262 6.21256 -0.0138378 2.95263 -7.46573 -8.02246 23.3657 3.55271e-15 1e-06 2.78299e-15 8.74653e-15 6.36111e-15 4.20345 4.44573 12.7354 172.377 0.21838 -87.1877 10.4683 2.12572 -3.51895 177.404 3.33033 84.0165 7.34534 0 -1.9e-06 -40.3653 60.6481 -45.7382 23.3863 1.9e-06 5.68434e-14 -10.1666 -9.54166e-15 -1.19271e-15 21.504 3.8e-06 1e-06 -90.8973 -2.66625 9.9706 1.59262 6.21257 0.0138388 -11.8266 -3.80147 0.959196 23.3657 -2.84217e-14 1e-06 180 3.81667e-14 6.36111e-15 4.20337 4.4457 -12.7351 172.377 -0.218352 87.1876 -4.78895 3.85983 0.86083 140.74 5.45171 32.3206 4.22117 3.815e-05 -5.7e-06 -6.22884 11.1743 -6.83737 4.97505 3.8e-06 -6.7e-06 -3.25002 6.71176 -0.322966 4.7171 -1.145e-05 2.86e-05 3.18055e-15 0 -3.18055e-15 9.71734 -4.2e-05 -5.72e-05 -6.36111e-15 7.95139e-15 3.18055e-15 8.26175 8.01e-05 5.7e-06 -3.97252e-31 -4.77083e-15 -4.77083e-15 9.75986 -6.48e-05 2.86e-05 -1.76556e-31 3.18055e-15 3.18055e-15 11.153 2.67e-05 -2.1e-05 -0 0 1.59028e-15 10.3039 1.14e-05 4.2e-05 9.54166e-15 3.18055e-15 -0 -11.9878 -1.78568 10.19 170.606 3.62573 1.11034 8.44238 1.53e-05 4.2e-05 -3.31043e-32 -5.96354e-16 -3.18055e-15 9.95005 7.6e-06 -2.86e-05 -0 -6.95746e-16 -0 9.43418 0 -4.58e-05 3.97569e-16 -6.95746e-16 -0 9.71733 6.87e-05 0.0001106 3.97569e-16 -5.96354e-16 -0 8.26175 -2.29e-05 -4.77e-05 3.97569e-16 -4.96962e-16 -0 9.75994 2.86e-05 3.05e-05 3.97569e-16 -3.97569e-16 1.59028e-15 11.1529 -7.25e-05 -5.91e-05 3.03456e-32 -1.09332e-15 1.59028e-15 10.3039 -7.6e-06 0 7.95139e-16 1.49089e-15 3.18055e-15 -1.14e-05 1.53e-05 9.94222 -109.749 13.5656 -173.819 25.9795 1e-06 0 -41.3394 -0.220259 -1.19052 21.2087 1.9e-06 -1e-06 54.9455 6.81398 -9.50604 10.4341 -1.9e-06 1e-06 -12.597 -2.66234 4.45338 5.66763 6.59832 -2.84217e-14 90.2627 13.6838 -6.57254 8.62785 0 0 -180 -3.97569e-14 7.95139e-15 5.67414 -2.36194 -0.530567 -75.8081 4.38708 5.33411 -2.62874 -3.42539 -3.14618 29.7499 1.82752 90.2264 1.53e-05 -1.53e-05 -9.94222 -107.874 -16.5342 171.76 25.9795 0 1e-06 -41.9634 -0.381732 2.56919 21.2087 0 1.9e-06 49.4739 -10.5579 6.91787 10.4341 -1.9e-06 -1e-06 -16.807 11.7743 -3.87535 5.66763 6.59831 -1.42109e-14 87.1574 3.03708 -1.83743 8.62785 0 1.42109e-14 1.65521e-32 2.98177e-16 -3.18055e-15 5.67412 -2.36198 0.530355 -75.808 -4.38692 -5.33418 -2.62878 -3.42545 3.14601 29.7498 -1.82753 -90.2266
-24.256 59.1103 661.218 91.5148 9.06025 -173.064 53.2821 -6.35e-05 8.19533 -90 -81.2558 -180 0 0 0 -89.9999 -4.1675e-14 -90 10.4409 -1.622 1.78e-05 -4.213 -1.22335 -5.2728 8.8514 -0.0089989 0 -5.88156 1.61266 2.77732 11.3035 -0.0087814 2.84217e-14 -7.02122 4.32726 1.9119 11.0297 -0.0113029 2.84217e-14 -3.38858 2.29149 -0.517622 14.948 -3.19349 8.6e-06 135.468 16.0311 -177.636 5.49578 -0.0042877 1.77636e-14 -4.97421 -6.51354 -8.19989 5.52657 -0.0048637 1.42109e-14 -2.10173 -2.29948 4.28004 6.10934 5.68434e-14 0 -47.5923 5.8469 -10.4309 28.6688 -1.42109e-14 -2.84217e-14 -7.95139e-16 -1.98785e-16 3.18055e-15 0.607494 2.35752 -7.6e-06 -156.427 -0.000147608 180 10.4683 2.1257 3.51896 -172.724 12.5175 -94.6253 7.34534 0 1.9e-06 75.335 -83.2935 163.901 23.3863 -1.9e-06 1e-06 3.17384 -0.682021 -1.20581 21.504 -1.13687e-13 0 -85.1108 -5.81613 1.05371 1.59262 6.21256 -0.0138378 2.95263 -7.46573 -8.02246 23.3657 3.55271e-15 1e-06 2.78299e-15 8.74653e-15 6.36111e-15 4.20345 4.44573 12.7354 172.377 0.21838 -87.1877 10.4683 2.12572 -3.51895 177.404 3.33033 84.0165 7.34534 0 -1.9e-06 -40.3653 60.6481 -45.7382 23.3863 1.9e-06 5.68434e-14 -10.1666 -9.54166e-15 -1.19271e-15 21.504 3.8e-06 1e-06 -90.8973 -2.66625 9.9706 1.59262 6.21257 0.0138388 -11.8266 -3.80147 0.959196 23.3657 -2.84217e-14 1e-06 180 3.81667e-14 6.36111e-15 4.20337 4.4457 -12.7351 172.377 -0.218352 87.1876 -4.78895 3.85983 0.86083 140.74 5.45171 32.3206 4.22117 3.815e-05 -5.7e-06 -6.22884 11.1743 -6.83737 4.97505 3.8e-06 -6.7e-06 -3.25002 6.71176 -0.322966 4.7171 -1.145e-05 2.86e-05 3.18055e-15 0 -3.18055e-15 9.71734 -4.2e-05 -5.72e-05 -6.36111e-15 7.95139e-15 3.18055e-15 8.26175 8.01e-05 5.7e-06 -3.97252e-31 -4.77083e-15 -4.77083e-15 9.75986 -6.48e-05 2.86e-05 -1.76556e-31 3.18055e-15 3.18055e-15 11.153 2.67e-05 -2.1e-05 -0 0 1.59028e-15 10.3039 1.14e-05 4.2e-05 9.54166e-15 3.18055e-15 -0 -11.9878 -1.78568 10.19 170.606 3.62573 1.11034 8.44238 1.53e-05 4.2e-05 -3.31043e-32 -5.96354e-16 -3.18055e-15 9.95005 7.6e-06 -2.86e-05 -0 -6.95746e-16 -0 9.43418 0 -4.58e-05 3.97569e-16 -6.95746e-16 -0 9.71733 6.87e-05 0.0001106 3.97569e-16 -5.96354e-16 -0 8.26175 -2.29e-05 -4.77e-05 3.97569e-16 -4.96962e-16 -0 9.75994 2.86e-05 3.05e-05 3.97569e-16 -3.97569e-16 1.59028e-15 11.1529 -7.25e-05 -5.91e-05 3.03456e-32 -1.09332e-15 1.59028e-15 10.3039 -7.6e-06 0 7.95139e-16 1.49089e-15 3.18055e-15 -1.14e-05 1.53e-05 9.94222 -109.749 13.5656 -173.819 25.9795 1e-06 0 -41.3394 -0.220259 -1.19052 21.2087 1.9e-06 -1e-06 54.9455 6.81398 -9.50604 10.4341 -1.9e-06 1e-06 -12.597 -2.66234 4.45338 5.66763 6.59832 -2.84217e-14 90.2627 13.6838 -6.57254 8.62785 0 0 -180 -3.97569e-14 7.95139e-15 5.67414 -2.36194 -0.530567 -75.8081 4.38708 5.33411 -2.62874 -3.42539 -3.14618 29.7499 1.82752 90.2264 1.53e-05 -1.53e-05 -9.94222 -107.874 -16.5342 171.76 25.9795 0 1e-06 -41.9634 -0.381732 2.56919 21.2087 0 1.9e-06 49.4739 -10.5579 6.91787 10.4341 -1.9e-06 -1e-06 -16.807 11.7743 -3.87535 5.66763 6.59831 -1.42109e-14 87.1574 3.03708 -1.83743 8.62785 0 1.42109e-14 1.65521e-32 2.98177e-16 -3.18055e-15 5.67412 -2.36198 0.530355 -75.808 -4.38692 -5.33418 -2.62878 -3.42545 3.14601 29.7498 -1.82753 -90.2266
-24.5868 58.4542 661.061 90.2185 9.95711 -166.7 53.2821 -6.35e-05 8.19533 -90 -81.2558 -180 0 0 0 -89.9999 -4.1675e-14 -90 10.4409 -1.622 1.78e-05 -4.30227 -1.16212 -5.04952 8.8514 -0.0089989 0 -5.88995 1.5789 2.90097 11.3035 -0.0087814 0 -7.04773 4.28102 1.96565 11.0297 -0.0113029 0 -3.46033 2.29079 -0.497495 14.948 -3.19349 8.6e-06 135.145 16.2857 -177.145 5.49578 -0.0042877 1.42109e-14 -5.09869 -5.98689 -8.60602 5.52657 -0.0048637 1.42109e-14 -1.93402 -2.31934 4.21786 6.10934 5.68434e-14 2.84217e-14 -47.4546 5.9109 -10.4598 28.6688 0 0 -7.95139e-16 9.93923e-16 6.36111e-15 0.607494 2.35752 -7.6e-06 -156.427 -0.000147608 180 10.4683 2.1257 3.51896 -172.685 12.609 -94.7601 7.34534 0 1.9e-06 75.7398 -83.4515 164.263 23.3863 -1.9e-06 1e-06 3.07722 -0.679986 -1.20696 21.504 0 2.84217e-14 -85.491 -5.82296 1.01516 1.59262 6.21256 -0.0138378 2.33425 -8.00011 -8.07313 23.3657 -1.42109e-14 1e-06 2.38542e-15 -5.1684e-15 -0 4.20345 4.44573 12.7354 172.377 0.21838 -87.1877 10.4683 2.12572 -3.51895 177.316 3.39747 84.0324 7.34534 0 -1.9e-06 -40.4299 60.6361 -45.6421 23.3863 1.9e-06 0 -10.2556 3.18055e-15 4.96962e-16 21.504 3.8e-06 1e-06 -91.1348 -2.78456 10.2864 1.59262 6.21257 0.0138388 -14.4535 -4.52333 1.41012 23.3657 0 1e-06 180 6.08281e-14 9.54166e-15 4.20337 4.4457 -12.7351 172.377 -0.218352 87.1876 -4.78895 3.85983 0.86083 140.698 5.34687 33.0473 4.22117 3.815e-05 -5.7e-06 -7.39352 11.9668 -4.95133 4.97505 3.8e-06 -6.7e-06 -3.72337 6.65895 -0.567693 4.7171 -1.145e-05 2.86e-05 2.20695e-31 -1.59028e-15 7.95139e-15 9.71734 -4.2e-05 -5.72e-05 3.18055e-15 1.59028e-15 7.95139e-15 8.26175 8.01e-05 5.7e-06 3.18055e-15 3.18055e-15 6.36111e-15 9.75986 -6.48e-05 2.86e-05 -6.36111e-15 -4.77083e-15 1.59028e-15 11.153 2.67e-05 -2.1e-05 -3.18055e-15 -4.77083e-15 7.95139e-15 10.3039 1.14e-05 4.2e-05 -0 0 -1.59028e-15 -11.9878 -1.78568 10.19 170.606 3.62573 1.11034 8.44238 1.53e-05 4.2e-05 -3.97569e-16 3.97569e-16 1.59028e-15 9.95005 7.6e-06 -2.86e-05 3.97569e-16 -9.93923e-17 -1.59028e-15 9.43418 0 -4.58e-05 2.75869e-32 -9.93923e-16 1.59028e-15 9.71733 6.87e-05 0.0001106 3.97569e-16 -9.93923e-16 -1.59028e-15 8.26175 -2.29e-05 -4.77e-05 3.97569e-16 0 1.59028e-15 9.75994 2.86e-05 3.05e-05 -3.97569e-16 -1.78906e-15 -1.59028e-15 11.1529 -7.25e-05 -5.91e-05 3.97569e-16 -2.78299e-15 -1.59028e-15 10.3039 -7.6e-06 -2.84217e-14 3.97569e-16 -1.2921e-15 -1.59028e-15 -1.14e-05 1.53e-05 9.94222 -109.906 13.4976 -173.739 25.9795 1e-06 -5.68434e-14 -41.2698 -0.221704 -1.19025 21.2087 1.9e-06 -1e-06 54.9877 7.15865 -9.72701 10.4341 -1.9e-06 1e-06 -12.5885 -2.66168 4.45378 5.66763 6.59832 0 90.3156 14.3072 -6.85239 8.62785 0 2.84217e-14 -180 1.6201e-13 4.77083e-15 5.67414 -2.36194 -0.530567 -75.8081 4.38708 5.33411 -2.62874 -3.42539 -3.14618 29.7499 1.82752 90.2264 1.53e-05 -1.53e-05 -9.94222 -107.768 -16.5651 171.897 25.9795 0 1e-06 -41.8071 -0.374718 2.57022 21.2087 1.13687e-13 1.9e-06 49.6033 -10.8419 6.85337 10.4341 -1.9e-06 -1e-06 -16.8484 12.0035 -3.80306 5.66763 6.59831 0 86.9549 3.09676 -1.86436 8.62785 -1.42109e-14 1.42109e-14 -0 0 -0 5.67412 -2.36198 0.530356 -75.808 -4.38692 -5.33418 -2.62878 -3.42545 3.14601 29.7498 -1.82753 -90.2266
-24.5208 58.4687 661.039 90.1678 10.2753 -166.663 53.2821 -6.35e-05 8.19533 -90 -81.2558 -180 0 0 0 -89.9999 -4.1675e-14 -90 10.4409 -1.622 1.78e-05 -4.36088 -1.10635 -4.86727 8.8514 -0.0089989 0 -5.84538 1.56293 3.00955 11.3035 -0.0087814 0 -7.02581 4.24713 2.02468 11.0297 -0.0113029 0 -3.47848 2.26986 -0.481344 14.948 -3.19349 8.6e-06 135.058 16.1191 -176.996 5.49578 -0.0042877 7.10543e-15 -5.12117 -6.02839 -8.71886 5.52657 -0.0048637 1.42109e-14 -1.92885 -2.37099 4.19654 6.10934 1.13687e-13 2.84217e-14 -47.4463 5.92616 -10.512 28.6688 1.42109e-14 -2.84217e-14 3.97569e-16 9.93923e-17 -6.36111e-15 0.607494 2.35752 -7.6e-06 -156.427 -0.000147608 180 10.4683 2.1257 3.51896 -172.657 12.6586 -94.7423 7.34534 0 1.9e-06 75.716 -83.4983 164.191 23.3863 -1.9e-06 1e-06 3.04438 -0.679294 -1.20735 21.504 0 -2.84217e-14 -85.5548 -5.82408 1.00868 1.59262 6.21256 -0.0138378 2.29462 -7.98451 -8.15705 23.3657 7.10543e-15 1e-06 7.95139e-16 -4.77083e-15 -3.18055e-15 4.20345 4.44573 12.7354 172.377 0.21838 -87.1877 10.4683 2.12572 -3.51895 177.295 3.40813 83.9594 7.34534 0 -1.9e-06 -40.4423 60.6402 -45.6164 23.3863 1.9e-06 0 -10.2777 -3.18055e-15 -1.98785e-15 21.504 3.8e-06 1e-06 -91.0963 -2.81669 10.2013 1.59262 6.21257 0.0138388 -14.4814 -4.51736 1.41349 23.3657 0 1e-06 180 9.93923e-15 -3.18055e-15 4.20337 4.4457 -12.7351 172.377 -0.218352 87.1876 -4.78895 3.85983 0.86083 140.744 5.30702 33.7255 4.22117 3.815e-05 -5.7e-06 -8.48287 15.2224 -2.29687 4.97505 3.8e-06 -6.7e-06 -4.18668 6.47901 -0.707208 4.7171 -1.145e-05 2.86e-05 6.36111e-15 -3.18055e-15 7.95139e-15 9.71734 -4.2e-05 -5.72e-05 -1.76556e-31 3.18055e-15 3.18055e-15 8.26175 8.01e-05 5.7e-06 -0 -3.18055e-15 -0 9.75986 -6.48e-05 2.86e-05 3.18055e-15 -3.18055e-15 -0 11.153 2.67e-05 -2.1e-05 3.18055e-15 0 3.18055e-15 10.3039 1.14e-05 4.2e-05 3.18055e-15 -6.36111e-15 -1.59028e-15 -11.9878 -1.78568 10.19 170.606 3.62573 1.11034 8.44238 1.53e-05 4.2e-05 -1.59028e-15 6.95746e-16 -3.18055e-15 9.95005 7.6e-06 -2.86e-05 -7.95139e-16 0 -3.18055e-15 9.43418 -7.10543e-15 -4.58e-05 -7.95139e-16 9.93923e-17 1.59028e-15 9.71733 6.87e-05 0.0001106 1.59028e-15 1.98785e-16 -0 8.26175 -2.29e-05 -4.77e-05 3.97569e-16 1.98785e-16 -0 9.75994 2.86e-05 3.05e-05 1.98785e-15 -5.96354e-16 -1.59028e-15 11.1529 -7.25e-05 -5.91e-05 -2.20695e-32 -7.95139e-16 -1.59028e-15 10.3039 -7.6e-06 0 1.19271e-15 8.94531e-16 -0 -1.14e-05 1.53e-05 9.94222 -109.996 13.3899 -173.682 25.9795 1e-06 0 -41.2105 -0.222937 -1.19002 21.2087 1.9e-06 -1e-06 54.8688 7.33375 -9.84131 10.4341 -1.9e-06 1e-06 -12.5407 -2.65796 4.45599 5.66763 6.59832 -2.84217e-14 90.3377 14.2808 -6.84541 8.62785 -1.77636e-15 2.84217e-14 -180 -6.63941e-14 -0 5.67414 -2.36194 -0.530567 -75.8081 4.38708 5.33411 -2.62874 -3.42539 -3.14618 29.7499 1.82752 90.2264 1.53e-05 -1.53e-05 -9.94222 -107.659 -16.5606 172.022 25.9795 -1.13687e-13 1e-06 -41.7364 -0.37154 2.57068 21.2087 0 1.9e-06 49.5621 -10.6811 6.71315 10.4341 -1.9e-06 -1e-06 -16.8352 12.0215 -3.79694 5.66763 6.59831 1.42109e-14 86.9672 3.11928 -1.88732 8.62785 1.42109e-14 0 5.51738e-33 -1.98785e-16 1.59028e-15 5.67412 -2.36198 0.530356 -75.808 -4.38692 -5.33418 -2.62878 -3.42545 3.14601 29.7498 -1.82753 -90.2266
